# xmcd
# 
# Track frame offsets:
#     150
#     18195
#     34947
#     57302
#     77857
#     92327
#     109535
#     127925
#     146317
#     164517
#     179865
# 
# Disc length: 2713
# 
# Revision: 7
# Processed by: cddbd v1.5.2PL0 Copyright (c) Steve Scherf et al.
# Submitted via: BonkEnc v1.0.6
# 
DISCID=890a970b
DTITLE=Pretty Maids - Sin-Decade
DYEAR=1992
DGENRE=Hard Rock
TTITLE0=Running Out
TTITLE1=Who Said Money
TTITLE2=Nightmare In The Neighbourhood
TTITLE3=Sin-Decade
TTITLE4=Come On Tough, Come On Nasty
TTITLE5=Raise Your Flag
TTITLE6=Credit Card Lover
TTITLE7=Know It Ain't Easy
TTITLE8=Healing Touch
TTITLE9=In The Flesh
TTITLE10=Please Don't Leave Me
EXTD=Released in 1992 on Sony Music YEAR: 1992
EXTT0=
EXTT1=
EXTT2=
EXTT3=
EXTT4=
EXTT5=
EXTT6=
EXTT7=
EXTT8=
EXTT9=
EXTT10=
PLAYORDER=
